<?xml version="1.0" encoding="UTF-8"?>
<svg width="640" height="480" xmlns="http://www.w3.org/2000/svg" xmlns:svg="http://www.w3.org/2000/svg" xmlns:xlink="http://www.w3.org/1999/xlink">
 <title>brown book reading</title>
 <defs>
  <linearGradient id="linearGradient902">
   <stop id="stop903" offset="0" stop-color="#000000"/>
   <stop id="stop904" offset="1" stop-opacity="0" stop-color="#000000"/>
  </linearGradient>
  <linearGradient id="linearGradient51" x1="0.189349" x2="0.745562" xlink:href="#linearGradient902" y1="0.117187" y2="0.929687"/>
 </defs>
 <g>
  <title>Layer 1</title>
  <path d="m284.3183,400.07721c19.6945,7.03378 33.7621,22.50799 88.62549,7.03369c54.86322,-15.47421 212.41961,-97.06589 151.92919,-143.48871c-60.49038,-46.4229 -191.31828,-77.3714 -268.68969,-77.3714c-12.6608,36.57561 -37.98231,188.50482 28.13499,213.82642l0.00002,0z" id="path630" stroke-width="1pt" fill-rule="evenodd" fill="url(#linearGradient51)"/>
  <path d="m486.89059,262.6739c11.25412,1.40679 30.94861,9.31469 25.3216,26.7416c-5.62708,17.427 -189.91159,122.1528 -213.82639,114.2315c-23.91481,-7.9212 -47.8296,-34.67639 -47.8296,-34.67639l236.33439,-106.29671z" id="path629" stroke-width="1.06122" fill-rule="evenodd" fill="#333333"/>
  <path d="m492.5177,205.8799c2.81351,26.9326 5.62711,55.83121 1.40689,76.23591c-97.06598,55.5734 -171.62389,95.93039 -225.08049,108.0452c-18.2878,-17.427 -22.5081,-99.80902 -22.5081,-99.80902l246.1817,-84.47209z" id="path628" stroke-width="12.5" stroke="#7f7f7f" fill-rule="evenodd" fill="#bfbfbf"/>
  <path d="m306.8264,303.02609c43.60939,-20.66238 180.06429,-87.31228 202.5724,-98.5663c-40.7958,-21.10128 -198.35209,-99.83579 -236.3345,-109.15055c-14.0675,4.75285 -140.67525,61.43156 -140.67525,61.43156c21.10129,22.508 158.96305,141.53261 174.43735,146.28529z" id="path626" stroke-linejoin="round" stroke-width="12.5" stroke="#333333" fill-rule="evenodd" fill="#ffffff"/>
  <path d="m304.01289,304.07791c0,0 -26.72839,22.1799 -28.13499,50.69669c-1.4068,28.51681 23.91479,34.17059 21.10119,44.37289c-54.86329,1.76181 -157.55627,-137.31239 -181.47106,-163.88998c-10.55064,-16.10221 -15.12259,-29.00492 -10.55064,-47.17961c4.57194,-18.17479 15.47427,-28.9607 28.83841,-28.16851c26.72828,26.90581 139.2685,119.1753 170.21709,144.16852z" id="path627" stroke-width="12.5" stroke="#333333" fill-rule="evenodd" fill="#ffffff"/>
 </g>
</svg>